<?xml version="1.0" encoding="utf-8"?>
<!-- Generator: Adobe Illustrator 21.1.0, SVG Export Plug-In . SVG Version: 6.00 Build 0)  -->
<svg version="1.1" id="Icons" xmlns="http://www.w3.org/2000/svg" xmlns:xlink="http://www.w3.org/1999/xlink" x="0px" y="0px"
	 viewBox="0 0 48 48" style="enable-background:new 0 0 48 48;" xml:space="preserve">
<style type="text/css">
	.st0{opacity:0.15;fill:#45413C;}
	.st1{fill:#FFE500;}
	.st2{fill:#EBCB00;}
	.st3{fill:none;stroke:#45413C;stroke-linecap:round;stroke-linejoin:round;stroke-miterlimit:10;}
	.st4{fill:#FFAA54;}
	.st5{fill:#FF8A14;}
	.st6{fill:#FFB0CA;stroke:#45413C;stroke-linecap:round;stroke-linejoin:round;stroke-miterlimit:10;}
	.st7{fill:#FF87AF;stroke:#45413C;stroke-linecap:round;stroke-linejoin:round;stroke-miterlimit:10;}
	.st8{fill:#FFCC99;}
	.st9{fill:#FFFFFF;}
	.st10{fill:#F0F0F0;}
	.st11{fill:#BF8256;}
	.st12{fill:#915E3A;}
	.st13{fill:#DEA47A;}
	.st14{fill:#F0D5A8;}
	.st15{fill:#DEBB7E;}
	.st16{fill:#F7E5C6;}
	.st17{fill:#FF8A14;stroke:#45413C;stroke-linecap:round;stroke-linejoin:round;stroke-miterlimit:10;}
	.st18{fill:#FFF5E3;}
	.st19{fill:#FFF48C;}
	.st20{fill:#FFFACF;}
	.st21{fill:#FFFCE5;}
	.st22{fill:#FF87AF;}
	.st23{fill:#FFB0CA;}
	.st24{fill:#FFE500;stroke:#45413C;stroke-linecap:round;stroke-linejoin:round;stroke-miterlimit:10;}
	.st25{fill:#9CEB60;stroke:#45413C;stroke-linecap:round;stroke-linejoin:round;stroke-miterlimit:10;}
	.st26{fill:#FFFACF;stroke:#45413C;stroke-linecap:round;stroke-linejoin:round;stroke-miterlimit:10;}
	.st27{fill:#00F5BC;stroke:#45413C;stroke-linecap:round;stroke-linejoin:round;stroke-miterlimit:10;}
	.st28{fill:#BF8256;stroke:#45413C;stroke-linecap:round;stroke-linejoin:round;stroke-miterlimit:10;}
	.st29{fill:#FFE3CF;stroke:#45413C;stroke-linecap:round;stroke-linejoin:round;stroke-miterlimit:10;}
	.st30{fill:#FF6242;}
	.st31{fill:#FF866E;}
	.st32{fill:none;stroke:#E04122;stroke-linecap:round;stroke-linejoin:round;stroke-miterlimit:10;}
	.st33{fill:#FFFEF2;stroke:#45413C;stroke-linecap:round;stroke-linejoin:round;stroke-miterlimit:10;}
	.st34{fill:#FF6242;stroke:#45413C;stroke-linecap:round;stroke-linejoin:round;stroke-miterlimit:10;}
	.st35{fill:#FFA694;}
	.st36{fill:#FFFFFF;stroke:#45413C;stroke-linecap:round;stroke-linejoin:round;stroke-miterlimit:10;}
	.st37{fill:#FFFEF2;}
	.st38{fill:#FF6196;}
	.st39{fill:#B89558;}
	.st40{fill:none;stroke:#915E3A;stroke-linecap:round;stroke-linejoin:round;stroke-miterlimit:10;}
	.st41{fill:#DEBB7E;stroke:#45413C;stroke-linecap:round;stroke-linejoin:round;stroke-miterlimit:10;}
	.st42{fill:#6DD627;stroke:#45413C;stroke-linecap:round;stroke-linejoin:round;stroke-miterlimit:10;}
	.st43{fill:#E5F8FF;}
	.st44{fill:#E8F4FA;}
	.st45{fill:#E8F4FA;stroke:#45413C;stroke-linecap:round;stroke-linejoin:round;stroke-miterlimit:10;}
	.st46{fill:#FFCCDD;}
	.st47{fill:#E5F8FF;stroke:#45413C;stroke-linecap:round;stroke-linejoin:round;stroke-miterlimit:10;}
	.st48{fill:#00B8F0;stroke:#45413C;stroke-linecap:round;stroke-linejoin:round;stroke-miterlimit:10;}
	.st49{fill:#00B8F0;}
	.st50{fill:#4ACFFF;}
	.st51{fill:#E04122;}
	.st52{fill:#E04122;stroke:#45413C;stroke-linecap:round;stroke-linejoin:round;stroke-miterlimit:10;}
	.st53{fill:#87898C;}
	.st54{fill:#BDBEC0;}
	.st55{fill:#656769;}
	.st56{fill:#525252;}
	.st57{fill:#FFF48C;stroke:#45413C;stroke-linecap:round;stroke-linejoin:round;stroke-miterlimit:10;}
	.st58{fill:#6DD627;}
	.st59{fill:#EB6D00;}
	.st60{fill:#46B000;}
	.st61{fill:#80DDFF;}
	.st62{fill:#DAEDF7;}
	.st63{fill:#BF8DF2;stroke:#45413C;stroke-linecap:round;stroke-linejoin:round;stroke-miterlimit:10;}
	.st64{fill:#9F5AE5;stroke:#45413C;stroke-linecap:round;stroke-linejoin:round;stroke-miterlimit:10;}
	.st65{fill:#C8FFA1;}
	.st66{fill:#E4FFD1;}
	.st67{fill:#9CEB60;}
	.st68{fill:#E5FEFF;}
	.st69{fill:#B8ECFF;}
	.st70{fill:#E0E0E0;stroke:#45413C;stroke-linecap:round;stroke-linejoin:round;stroke-miterlimit:10;}
	.st71{fill:#E0E0E0;}
	.st72{fill:none;stroke:#4F4B45;stroke-linejoin:round;stroke-miterlimit:10;}
	.st73{fill:none;stroke:#4F4B45;stroke-linecap:round;stroke-linejoin:round;stroke-miterlimit:10;}
	.st74{fill:#E0366F;stroke:#45413C;stroke-linecap:round;stroke-linejoin:round;stroke-miterlimit:10;}
	.st75{fill:none;stroke:#45413C;stroke-miterlimit:10;}
	.st76{fill:#FF866E;stroke:#45413C;stroke-linecap:round;stroke-linejoin:round;stroke-miterlimit:10;}
	.st77{fill:#45413C;stroke:#45413C;stroke-linecap:round;stroke-linejoin:round;stroke-miterlimit:10;}
	.st78{fill:#9F5AE5;}
	.st79{fill:#803EC2;}
	.st80{fill:#803EC2;stroke:#45413C;stroke-linecap:round;stroke-linejoin:round;stroke-miterlimit:10;}
	.st81{fill:#BF8DF2;}
	.st82{fill:#FFAA54;stroke:#45413C;stroke-linecap:round;stroke-linejoin:round;stroke-miterlimit:10;}
	.st83{fill:none;stroke:#45413C;stroke-linejoin:round;stroke-miterlimit:10;}
	.st84{fill:#FFCCDD;stroke:#45413C;stroke-linecap:round;stroke-linejoin:round;stroke-miterlimit:10;}
	.st85{fill:#FF6196;stroke:#45413C;stroke-linecap:round;stroke-linejoin:round;stroke-miterlimit:10;}
	.st86{fill:#FFE5EE;}
	.st87{fill:#F7E5C6;stroke:#45413C;stroke-linecap:round;stroke-linejoin:round;stroke-miterlimit:10;}
	.st88{fill:#E5FFF9;}
	.st89{fill:none;stroke:#45413C;stroke-width:1.0064;stroke-linecap:round;stroke-linejoin:round;stroke-miterlimit:10;}
	.st90{fill:#4AEFF7;}
	.st91{fill:#A6FBFF;}
	.st92{fill:#E5FEFF;stroke:#45413C;stroke-linecap:round;stroke-linejoin:round;stroke-miterlimit:10;}
	.st93{fill:#46B000;stroke:#45413C;stroke-linecap:round;stroke-linejoin:round;stroke-miterlimit:10;}
	.st94{fill:#FFFFFF;stroke:#45413C;stroke-linejoin:round;stroke-miterlimit:10;}
	.st95{fill:#FFFFFF;stroke:#45413C;stroke-miterlimit:10;}
	.st96{fill:#009FD9;}
	.st97{fill:#00DFEB;}
	.st98{fill:#C0DCEB;stroke:#45413C;stroke-linecap:round;stroke-linejoin:round;stroke-miterlimit:10;}
	.st99{fill:#00DFEB;stroke:#45413C;stroke-linecap:round;stroke-linejoin:round;stroke-miterlimit:10;}
	.st100{fill:#FFE5EE;stroke:#45413C;stroke-linecap:round;stroke-linejoin:round;stroke-miterlimit:10;}
	.st101{fill:#8CA4B8;}
	.st102{fill:#ADC4D9;}
	.st103{fill:#656769;stroke:#45413C;stroke-linecap:round;stroke-linejoin:round;stroke-miterlimit:10;}
	.st104{fill:#F0F0F0;stroke:#45413C;stroke-linecap:round;stroke-linejoin:round;stroke-miterlimit:10;}
	.st105{fill:#C0DCEB;}
	.st106{fill:#45413C;}
	.st107{fill:#FFCABF;}
	.st108{fill:#87898C;stroke:#45413C;stroke-linecap:round;stroke-linejoin:round;stroke-miterlimit:10;}
	.st109{fill:#EBCB00;stroke:#45413C;stroke-linecap:round;stroke-linejoin:round;stroke-miterlimit:10;}
</style>
<g id="XMLID_12985_">
	<path id="XMLID_12995_" class="st58" d="M25.6,12.7c0,0.8-0.7,1.3-1.4,1.3c-1.2,0-1.3-1.3-1.3-1.3S22.5,9,24.3,5.2
		c2.2-4.7,5.3-5.4,6.8-1.4s-1,0.8-3.4,3.4C25.7,9.5,25.6,12.7,25.6,12.7z"/>
	<path class="st67" d="M25.5,7.6c1.8-3.8,4.2-5,5.8-3.1c-0.1-0.2-0.1-0.4-0.2-0.6c-1.5-4.1-4.5-3.4-6.8,1.4
		c-1.8,3.8-1.4,7.5-1.4,7.5s0.1,1.2,1.2,1.3C24.1,12.6,24.3,10.1,25.5,7.6z"/>
	<ellipse id="XMLID_12994_" class="st0" cx="24" cy="45" rx="19.7" ry="2"/>
	<path id="XMLID_12993_" class="st3" d="M25.6,12.7c0,0.8-0.7,1.3-1.4,1.3c-1.2,0-1.3-1.3-1.3-1.3S22.5,9,24.3,5.2
		c2.2-4.7,5.3-5.4,6.8-1.4s-1,0.8-3.4,3.4C25.7,9.5,25.6,12.7,25.6,12.7z"/>
	<path id="XMLID_12992_" class="st30" d="M36.6,10.6c-3.3-1-6.8-0.9-9.8,1.2c-1.7,1.2-4,1.2-5.7,0c-3-2.1-6.6-2.2-9.8-1.2
		c-6.3,1.8-9.2,10.9-6.4,20.3C7.6,40.2,15,46.3,21.3,44.4c0.5-0.1,1-0.3,1.4-0.6c0.8-0.4,1.8-0.4,2.6,0c0.5,0.2,0.9,0.4,1.4,0.6
		c6.3,1.8,13.6-4.2,16.4-13.6C45.8,21.5,42.9,12.4,36.6,10.6z"/>
	<path id="XMLID_12991_" class="st31" d="M11.4,15c3.3-0.9,6.8-0.8,9.8,1.1c1.7,1.1,4,1.1,5.7,0c3-1.9,6.6-2,9.8-1.1
		c4.3,1.1,7,5.3,7.4,10.5c0.5-7.2-2.3-13.4-7.4-14.9c-3.3-1-6.8-0.9-9.8,1.2c-1.7,1.2-4,1.2-5.7,0c-3-2.1-6.6-2.2-9.8-1.2
		c-5.1,1.5-7.9,7.7-7.4,14.9C4.4,20.3,7.1,16.1,11.4,15z"/>
	<path id="XMLID_12990_" class="st3" d="M36.6,10.6c-3.3-1-6.8-0.9-9.8,1.2c-1.7,1.2-4,1.2-5.7,0c-3-2.1-6.6-2.2-9.8-1.2
		c-6.3,1.8-9.2,10.9-6.4,20.3C7.6,40.2,15,46.3,21.3,44.4c0.5-0.1,1-0.3,1.4-0.6c0.8-0.4,1.8-0.4,2.6,0c0.5,0.2,0.9,0.4,1.4,0.6
		c6.3,1.8,13.6-4.2,16.4-13.6C45.8,21.5,42.9,12.4,36.6,10.6z"/>
	<path id="XMLID_12989_" class="st58" d="M22.9,12.6c0,0,1.5-5.7-3.4-8.1c-2.7-1.4-6.3-0.1-7.6,0.4c-0.3,0.1-0.5,0.5-0.4,0.8
		c0.4,1.6,1.8,6,6,6.2C22.7,12.2,22.9,12.6,22.9,12.6z"/>
	<path id="XMLID_12988_" class="st67" d="M12.1,7.5c1.4-0.6,4.8-1.7,7.4-0.4c2.4,1.2,3.2,3.2,3.5,4.9c0.2-1.5,0.4-5.6-3.5-7.6
		c-2.7-1.4-6.3-0.1-7.6,0.4c-0.3,0.1-0.5,0.5-0.4,0.8C11.6,6.1,11.8,6.8,12.1,7.5z"/>
	<path id="XMLID_12987_" class="st3" d="M22.9,12.6c0,0,1.5-5.7-3.4-8.1c-2.7-1.4-6.3-0.1-7.6,0.4c-0.3,0.1-0.5,0.5-0.4,0.8
		c0.4,1.6,1.8,6,6,6.2C22.7,12.2,22.9,12.6,22.9,12.6z"/>
	<path id="XMLID_12986_" class="st42" d="M22.9,12.6c0,0-1-3.5-4.7-5.4"/>
</g>
</svg>
